<svg width="32" height="33" viewBox="0 0 32 33" fill="none" xmlns="http://www.w3.org/2000/svg">
<g opacity="0.9">
<path fill-rule="evenodd" clip-rule="evenodd" d="M16.5001 5.38159C13.7153 5.38159 11.0446 6.48784 9.07546 8.45697C7.10633 10.4261 6.00008 13.0968 6.00008 15.8816V26.3816H16.5001C17.879 26.3816 19.2443 26.11 20.5183 25.5823C21.7922 25.0547 22.9497 24.2812 23.9247 23.3062C24.8997 22.3312 25.6731 21.1737 26.2008 19.8998C26.7285 18.6259 27.0001 17.2605 27.0001 15.8816C27.0001 14.5027 26.7285 13.1373 26.2008 11.8634C25.6731 10.5895 24.8997 9.43199 23.9247 8.45697C22.9497 7.48196 21.7922 6.70853 20.5183 6.18086C19.2443 5.65318 17.879 5.38159 16.5001 5.38159ZM16.5001 28.3816H5.96803C5.71026 28.384 5.45456 28.3352 5.21572 28.2381C4.97446 28.1401 4.75529 27.9947 4.57114 27.8105C4.387 27.6264 4.2416 27.4072 4.14353 27.166C4.04645 26.9271 3.9977 26.6714 4.00008 26.4136V15.8816C4.00008 12.5664 5.31704 9.38696 7.66125 7.04276C10.0055 4.69855 13.1849 3.38159 16.5001 3.38159C18.1416 3.38159 19.7671 3.70491 21.2836 4.3331C22.8002 4.96128 24.1782 5.88202 25.3389 7.04276C26.4996 8.20349 27.4204 9.58148 28.0486 11.098C28.6768 12.6146 29.0001 14.2401 29.0001 15.8816C29.0001 17.5231 28.6768 19.1486 28.0486 20.6651C27.4204 22.1817 26.4996 23.5597 25.3389 24.7204C24.1782 25.8812 22.8002 26.8019 21.2836 27.4301C19.7671 28.0583 18.1416 28.3816 16.5001 28.3816Z" fill="white"/>
<path fill-rule="evenodd" clip-rule="evenodd" d="M11.5 14.3816C11.5 13.8293 11.9477 13.3816 12.5 13.3816H20C20.5523 13.3816 21 13.8293 21 14.3816C21 14.9339 20.5523 15.3816 20 15.3816H12.5C11.9477 15.3816 11.5 14.9339 11.5 14.3816Z" fill="white"/>
<path fill-rule="evenodd" clip-rule="evenodd" d="M11.5 18.3816C11.5 17.8293 11.9477 17.3816 12.5 17.3816H20C20.5523 17.3816 21 17.8293 21 18.3816C21 18.9339 20.5523 19.3816 20 19.3816H12.5C11.9477 19.3816 11.5 18.9339 11.5 18.3816Z" fill="white"/>
</g>
</svg>
