<svg width="32" height="33" viewBox="0 0 32 33" fill="none" xmlns="http://www.w3.org/2000/svg">
<g opacity="0.9">
<path d="M16.4988 9.9084C12.6535 9.9084 9.52556 13.0364 9.52556 16.8816C9.52556 20.7268 12.6535 23.8548 16.4988 23.8548C20.344 23.8548 23.472 20.7268 23.472 16.8816C23.472 13.0364 20.344 9.9084 16.4988 9.9084ZM16.4988 21.8624C13.7518 21.8624 11.5179 19.6285 11.5179 16.8816C11.5179 14.1347 13.7518 11.9007 16.4988 11.9007C19.2457 11.9007 21.4796 14.1347 21.4796 16.8816C21.4796 19.6285 19.2457 21.8624 16.4988 21.8624Z" fill="white"/>
<path d="M29.7976 19.6709L27.9448 17.2041C27.9485 16.9837 27.9448 16.7508 27.941 16.5641L29.7976 14.0923C29.9819 13.847 30.0429 13.5307 29.9633 13.2344C29.6519 12.08 29.1912 10.9693 28.5948 9.9333C28.4416 9.66807 28.1751 9.48751 27.8725 9.44393L24.818 9.00811C24.6736 8.85743 24.5242 8.70925 24.3722 8.56232L23.9364 5.50781C23.8928 5.20522 23.7135 4.93875 23.4483 4.78559C22.4123 4.18664 21.3003 3.72591 20.1447 3.41585C19.8484 3.33616 19.5333 3.39717 19.288 3.58146L16.83 5.42812C16.6096 5.4194 16.3892 5.4194 16.1675 5.42812L13.7095 3.58271C13.4642 3.39842 13.1479 3.3374 12.8515 3.4171C11.6972 3.7284 10.5865 4.18913 9.55046 4.78559C9.28523 4.93875 9.10468 5.20522 9.06109 5.50781L8.62402 8.5673C8.47584 8.71175 8.32891 8.85868 8.18446 9.00686L5.12497 9.44393C4.82239 9.48751 4.55591 9.66682 4.40275 9.93205C3.80629 10.9693 3.34556 12.0813 3.03426 13.2369C2.95457 13.5332 3.01558 13.8483 3.19987 14.0936L5.05275 16.5603C5.04901 16.7807 5.05275 17.0136 5.05649 17.2004L3.19987 19.6709C3.01558 19.9162 2.95457 20.2325 3.03426 20.5288C3.34556 21.6831 3.80629 22.7939 4.40275 23.8299C4.55591 24.0951 4.82239 24.2757 5.12497 24.3193L8.18446 24.7563C8.32891 24.9045 8.47584 25.0514 8.62402 25.1959L9.06109 28.2554C9.10468 28.558 9.28399 28.8244 9.54922 28.9776C10.5852 29.5765 11.6972 30.0373 12.8515 30.3473C12.9362 30.3697 13.0234 30.381 13.1093 30.381C13.3222 30.381 13.5327 30.3125 13.7082 30.1817L16.1663 28.3351C16.3867 28.3438 16.6083 28.3438 16.8275 28.3351L19.2855 30.1817C19.5309 30.366 19.8471 30.427 20.1435 30.3473C21.2978 30.036 22.4085 29.5753 23.4446 28.9788C23.7098 28.8257 23.8903 28.5592 23.9339 28.2566L24.371 25.1971C24.5217 25.0489 24.6811 24.8871 24.8081 24.7576L27.87 24.3205C28.1726 24.2769 28.4391 24.0976 28.5923 23.8324C29.1912 22.7964 29.6519 21.6844 29.962 20.5288C30.0417 20.2325 29.9807 19.9174 29.7964 19.6721L29.7976 19.6709ZM27.098 22.4166L24.1904 22.8325C23.97 22.8636 23.7671 22.9682 23.6127 23.1288C23.4558 23.292 22.9975 23.7639 22.7609 23.9818C22.5916 24.1375 22.482 24.3466 22.4496 24.5733L22.035 27.4809C21.4111 27.8071 20.7586 28.0773 20.0875 28.289L17.734 26.5208C17.5373 26.3726 17.2932 26.3041 17.0479 26.3253C16.6843 26.3577 16.317 26.3577 15.9534 26.3253C15.708 26.3041 15.464 26.3739 15.2672 26.5208L12.9138 28.289C12.2426 28.0786 11.5901 27.8083 10.9675 27.4821L10.5516 24.5745C10.5192 24.3516 10.4134 24.1462 10.2503 23.9918C9.9564 23.7141 9.66751 23.4252 9.39232 23.1338C9.23791 22.9707 9.03245 22.8636 8.80956 22.8325L5.90199 22.4178C5.57574 21.794 5.30553 21.1415 5.09384 20.4703L6.86205 18.1168C7.00026 17.9326 7.07124 17.7047 7.06128 17.4743C7.04758 17.173 7.03513 16.5964 7.05879 16.3362C7.07996 16.0909 7.01023 15.8468 6.86329 15.6501L5.09509 13.2966C5.30553 12.6255 5.57574 11.973 5.90199 11.3504L8.80956 10.9345C9.03245 10.9021 9.23791 10.7962 9.39232 10.6331C9.66876 10.3405 9.95765 10.0528 10.2503 9.77516C10.4134 9.62075 10.5205 9.41529 10.5516 9.1924L10.9675 6.28482C11.5914 5.95858 12.2439 5.68837 12.915 5.47668L15.2685 7.24488C15.4652 7.39306 15.7093 7.4628 15.9546 7.44038C16.3182 7.40801 16.6855 7.40801 17.0491 7.44038C17.2944 7.4628 17.5385 7.39182 17.7353 7.24488L20.09 5.47668C20.7611 5.68712 21.4136 5.95733 22.0362 6.28358L22.4521 9.19115C22.4845 9.41903 22.5941 9.62698 22.7634 9.78263C23.0573 10.0528 23.3387 10.3355 23.6015 10.6207C23.7571 10.79 23.9663 10.9008 24.1942 10.9332L27.1018 11.3491C27.428 11.973 27.6982 12.6255 27.9099 13.2966L26.1417 15.6501C26.0035 15.8344 25.9325 16.0622 25.9425 16.2926C25.9562 16.5939 25.9686 17.1705 25.9449 17.4307C25.9238 17.676 25.9935 17.9201 26.1404 18.1168L27.9086 20.4715C27.6982 21.1427 27.428 21.7952 27.1018 22.4178L27.098 22.4166Z" fill="white"/>
</g>
</svg>
