<svg width="24" height="24" viewBox="0 0 24 24" fill="none" xmlns="http://www.w3.org/2000/svg">
<path d="M20.9367 13.0732C21.3432 12.87 21.6 12.4544 21.6 11.9999C21.6 11.5454 21.3432 11.1299 20.9367 10.9266L4.13666 2.5266C3.71102 2.31378 3.19984 2.37259 2.83364 2.6765C2.46745 2.98042 2.31544 3.47201 2.44618 3.92958L4.16046 9.92957C4.30765 10.4447 4.77851 10.7999 5.31429 10.7999L10.8 10.7999C11.4627 10.7999 12 11.3372 12 11.9999C12 12.6626 11.4627 13.1999 10.8 13.1999L5.31429 13.1999C4.77852 13.1999 4.30765 13.5551 4.16046 14.0702L2.44618 20.0702C2.31544 20.5278 2.46745 21.0194 2.83364 21.3233C3.19984 21.6272 3.71102 21.686 4.13666 21.4732L20.9367 13.0732Z" fill="white"/>
</svg>
