<svg width="24" height="24" viewBox="0 0 24 24" fill="none" xmlns="http://www.w3.org/2000/svg">
<path fill-rule="evenodd" clip-rule="evenodd" d="M20.25 11.25C20.6642 11.25 21 11.5858 21 12V16.5C21 16.9143 20.6642 17.25 20.25 17.25C19.8357 17.25 19.5 16.9143 19.5 16.5V12C19.5 11.5858 19.8357 11.25 20.25 11.25Z" fill="#0070C0"/>
<path fill-rule="evenodd" clip-rule="evenodd" d="M17.25 14.25C17.25 13.8358 17.5857 13.5 18 13.5H22.5C22.9142 13.5 23.25 13.8358 23.25 14.25C23.25 14.6643 22.9142 15 22.5 15H18C17.5857 15 17.25 14.6643 17.25 14.25Z" fill="#0070C0"/>
<path fill-rule="evenodd" clip-rule="evenodd" d="M7.87496 3.00004C8.28917 3.00004 8.62496 3.33583 8.62496 3.75004V7.50004C8.62496 7.91426 8.28917 8.25004 7.87496 8.25004C7.46074 8.25004 7.12496 7.91426 7.12496 7.50004V3.75004C7.12496 3.33583 7.46074 3.00004 7.87496 3.00004Z" fill="#0070C0"/>
<path fill-rule="evenodd" clip-rule="evenodd" d="M5.24996 5.62504C5.24996 5.21083 5.58574 4.87504 5.99996 4.87504H9.74996C10.1642 4.87504 10.5 5.21083 10.5 5.62504C10.5 6.03926 10.1642 6.37504 9.74996 6.37504H5.99996C5.58574 6.37504 5.24996 6.03926 5.24996 5.62504Z" fill="#0070C0"/>
<path fill-rule="evenodd" clip-rule="evenodd" d="M15.75 16.5C16.1642 16.5 16.5 16.8358 16.5 17.25V20.25C16.5 20.6643 16.1642 21 15.75 21C15.3357 21 15 20.6643 15 20.25V17.25C15 16.8358 15.3357 16.5 15.75 16.5Z" fill="#0070C0"/>
<path fill-rule="evenodd" clip-rule="evenodd" d="M13.5 18.75C13.5 18.3358 13.8357 18 14.25 18H17.25C17.6642 18 18 18.3358 18 18.75C18 19.1643 17.6642 19.5 17.25 19.5H14.25C13.8357 19.5 13.5 19.1643 13.5 18.75Z" fill="#0070C0"/>
<path fill-rule="evenodd" clip-rule="evenodd" d="M3.00611 19.0601C2.42033 18.4743 2.42033 17.5245 3.00611 16.9387L16.9472 2.99769C17.533 2.4119 18.4827 2.4119 19.0685 2.99769L21.0075 4.93671C21.5933 5.52249 21.5933 6.47224 21.0075 7.05803L7.06645 20.9991C6.48067 21.5849 5.53092 21.5849 4.94513 20.9991L3.00611 19.0601ZM18.0078 4.05835L4.06677 17.9994L6.00579 19.9384L19.9468 5.99737L18.0078 4.05835Z" fill="#0070C0"/>
<path fill-rule="evenodd" clip-rule="evenodd" d="M12.9696 6.96971C13.2625 6.67682 13.7374 6.67682 14.0303 6.96971L17.0303 9.96971C17.3232 10.2626 17.3232 10.7375 17.0303 11.0304C16.7374 11.3233 16.2625 11.3233 15.9696 11.0304L12.9696 8.03037C12.6767 7.73748 12.6767 7.26261 12.9696 6.96971Z" fill="#0070C0"/>
</svg>
