<svg width="32" height="33" viewBox="0 0 32 33" fill="none" xmlns="http://www.w3.org/2000/svg">
<g opacity="0.9">
<path fill-rule="evenodd" clip-rule="evenodd" d="M16 5.38159C9.92487 5.38159 5 10.3065 5 16.3816C5 22.4567 9.92487 27.3816 16 27.3816C22.0751 27.3816 27 22.4567 27 16.3816C27 10.3065 22.0751 5.38159 16 5.38159ZM3 16.3816C3 9.20189 8.8203 3.38159 16 3.38159C23.1797 3.38159 29 9.20189 29 16.3816C29 23.5613 23.1797 29.3816 16 29.3816C8.8203 29.3816 3 23.5613 3 16.3816Z" fill="white"/>
<path d="M16 24.3816C16.8284 24.3816 17.5 23.71 17.5 22.8816C17.5 22.0532 16.8284 21.3816 16 21.3816C15.1716 21.3816 14.5 22.0532 14.5 22.8816C14.5 23.71 15.1716 24.3816 16 24.3816Z" fill="white"/>
<path fill-rule="evenodd" clip-rule="evenodd" d="M14.2779 9.72414C15.1002 9.38354 16.005 9.29443 16.8779 9.46806C17.7508 9.64169 18.5526 10.0703 19.182 10.6996C19.8113 11.3289 20.2399 12.1308 20.4135 13.0037C20.5872 13.8766 20.4981 14.7814 20.1575 15.6037C19.8169 16.4259 19.2401 17.1287 18.5001 17.6232C18.0413 17.9298 17.5325 18.1477 17 18.2691V18.3816C17 18.9339 16.5523 19.3816 16 19.3816C15.4477 19.3816 15 18.9339 15 18.3816V17.3816C15 17.1164 15.1054 16.862 15.2929 16.6745C15.4804 16.487 15.7348 16.3816 16 16.3816C16.4945 16.3816 16.9778 16.235 17.3889 15.9603C17.8 15.6856 18.1205 15.2951 18.3097 14.8383C18.4989 14.3815 18.5484 13.8788 18.452 13.3939C18.3555 12.9089 18.1174 12.4635 17.7678 12.1138C17.4181 11.7642 16.9727 11.5261 16.4877 11.4296C16.0028 11.3332 15.5001 11.3827 15.0433 11.5719C14.5865 11.7611 14.196 12.0815 13.9213 12.4927C13.6466 12.9038 13.5 13.3871 13.5 13.8816C13.5 14.4339 13.0523 14.8816 12.5 14.8816C11.9477 14.8816 11.5 14.4339 11.5 13.8816C11.5 12.9916 11.7639 12.1215 12.2584 11.3815C12.7529 10.6415 13.4557 10.0647 14.2779 9.72414Z" fill="white"/>
</g>
</svg>
